<svg id="Layer_1" data-name="Layer 1" xmlns="http://www.w3.org/2000/svg" viewBox="0 0 1070.69 1046.5">
    <defs>
        <style>

            #logo {
                fill: rgb(110, 66, 12);
            }

            #main {
                <!-- display: none; -->
            }

            #leafs {
                fill: rgb(15, 61, 29);
            }
            #left-leaf {
                <!-- display: none; -->
            }
             #right-leaf {
                <!-- display: none; -->
            }
             #bottom-leaf {
                <!-- display: none;z -->
            }


        </style>
    </defs>


    <g id="logo">
    
        <g id="main">

            <path class="main" d="M650.38,296.3c-7.71-19.3-15.35-38.73-22-58.59A1387.42,1387.42,0,0,1,570.94,1.78L570.67,0c-.09.6-.18,1.2-.28,1.8A1384.33,1384.33,0,0,1,513,237.71c-29.31,86.7-76.34,165.14-70,259.69.18,2.38.34,4.8.58,7.2a275.61,275.61,0,0,0,9.44,51c.24.82.46,1.6.7,2.38a251.68,251.68,0,0,0,61.76,105,154.27,154.27,0,0,0,43.67-27.23c-1-.88-2-1.78-3-2.68a232.28,232.28,0,0,1-16.79-17,192.58,192.58,0,0,1-42-79.82c-1-3.8-1.86-7.64-2.66-11.54a223.16,223.16,0,0,1-4.24-39.77,248.42,248.42,0,0,1,4.3-50.62c11.09-58.83,41.45-111.17,61.76-166.85,5.3-14.4,9.84-29.22,13.86-44.11,4.12,14.89,8.57,29.65,13.85,44.11,20.34,55.72,50.67,108,61.77,166.85a252.63,252.63,0,0,1,4.11,36.59,196.45,196.45,0,0,1,46.28,18.35l1.83,1C701.39,420.36,675.5,359.08,650.38,296.3Z"/>

            <path class="main" d="M752.78,765.79c74.33,8,151.61,2.41,221.09-7,11.72-1.56,23.48-3.22,35.19-4.78q31-4.21,61.63-9l-38-15q-21.6-8.52-42.83-18.36a752.91,752.91,0,0,1-81.34-44.11c-53.52-33.45-97.39-74.74-144-116.74a321.19,321.19,0,0,0-66.86-46.17,309.55,309.55,0,0,0-47-19.62,260.86,260.86,0,0,0-37.91-9.31c-3.57-.56-7.15-1.14-10.83-1.66a219.66,219.66,0,0,0-62.51,0c-3.67.52-7.25,1.1-10.83,1.66a257.4,257.4,0,0,0-25.49,5.62,241.06,241.06,0,0,0,6.29,51.46,238.6,238.6,0,0,1,36.19-7.26c8.24-1,16.66-1.52,25-1.74,8.35.22,16.69.78,25,1.74a243.55,243.55,0,0,1,48,10.76,270.25,270.25,0,0,1,44.46,19.27l1.76.92c42.21,23.22,73.62,56.91,108.53,89.22,23.26,21.55,48.87,40,77.66,53.3a322.32,322.32,0,0,0,35.33,14c3.82,1.2,9.66,4.1,13.78,4-15.78.68-175.37,17.63-298.1-38.21a216.18,216.18,0,0,1-44,34.92l-.82.49q10.74,6.18,22.22,11.78C650.08,748,700.79,760.19,752.78,765.79Z"/>

            <path class="main" d="M571.83,706.4l-1.1.68a351.41,351.41,0,0,1-33.89,18.72c-110.55,53.66-251.25,48.86-369.42,33-11.72-1.58-23.47-3.24-35.19-4.8q-30.87-4.14-61.54-9l38-15q21.64-8.52,42.84-18.36a752.21,752.21,0,0,0,81.4-44c53.53-33.45,97.39-74.74,144-116.74a317.32,317.32,0,0,1,55.78-40.11c0,.31,0,.63.08.95a215.37,215.37,0,0,0,10,50.07c-37.39,22.92-67.8,54.37-99.79,84-23.25,21.55-48.87,40-77.68,53.3A319.24,319.24,0,0,1,230,713c-3.82,1.2-9.68,4.12-13.77,4,16.25.7,185.84,18.71,309.81-43.89a270.94,270.94,0,0,0,44.67-28h0c4.95-3.82,9.67-7.78,14.27-12a235.93,235.93,0,0,0,16.78-17,191.56,191.56,0,0,0,38-66.78A173.62,173.62,0,0,1,684,568.54a253.64,253.64,0,0,1-68.7,104.57A306.68,306.68,0,0,1,571.83,706.4Z"/>

        </g>

        <g id="leafs">
        
            <g id="left-leaf" >

                <path class="left-leaf" d="M209.12,380.35h.38a256.32,256.32,0,0,1,27.16.2,183.3,183.3,0,0,1,70,20.12c21.17,10.81,41.93,25.59,58.69,44.05a101.54,101.54,0,0,1,15.11,18.67c2.05,3.27,8.08,13.16,8.08,13.16-12.74-3.18-25.1-1.88-37.17-.78s-24.34,2.38-37.05-.64c-14-3.32-27.33-11.7-39.21-21.7-20-16.84-46.87-55.67-75.89-73l-.57-.34S205.92,380.48,209.12,380.35Z"/>

                <path class="left-leaf" d="M326.55,347.21h0l-7.4-8.72L325,341l5.32,2.68a278.63,278.63,0,0,1,27.9,15.56,259.46,259.46,0,0,1,28.83,21.65,148.69,148.69,0,0,1,24,25.2,68.16,68.16,0,0,1,8.12,14.69,61.88,61.88,0,0,1,4,17.76,101,101,0,0,1-3,31.31,10.58,10.58,0,0,1-.36,1,1.71,1.71,0,0,0-.1.3L417.28,477s-1.37-2.77-3-5.63l-.2-.28c-6-7.94-14.52-14.06-22.37-20.42a118.53,118.53,0,0,1-11.42-10.29,75.28,75.28,0,0,1-9.4-12.5,211.22,211.22,0,0,1-13.11-28.37c-2-4.9-4.06-9.72-6.44-14.42-2.54-5.12-5.5-10.23-8.54-15.11s-6.3-9.68-9.66-14.42c-.78-1.13-2.28-3.15-3.75-5l-2.83-3.33Z"/>

                <path class="left-leaf" d="M282.13,533.93l.37-.53,3.68-5.29h0s.5-.75.68-1,.81-1,.81-1c8.33-9.91,25.89-22.23,33.57-26.41A83.35,83.35,0,0,1,346,490.44a68,68,0,0,1,10.58-.64,137.86,137.86,0,0,1,16.71,1.8c6.09.89,16.12,2.79,22.65,2.45.48,0,5-.44,5.36-.43-.06.07-3.36,2.79-4.45,3.81-.48.45-1.75,1.54-2.22,2-8.18,7-22.56,17.66-32.44,21.77a98.66,98.66,0,0,1-25.29,6.88c-9.58,1.26-19.35,1.06-29.05,1.52A95.17,95.17,0,0,0,283,533.69l-.42.12Z"/>

            </g>

            <g id="right-leaf" >

                <path class="right-leaf" d="M931.92,380.35h-.38a256.32,256.32,0,0,0-27.16.2,183.3,183.3,0,0,0-70,20.12c-21.17,10.81-41.94,25.59-58.69,44.05a101.13,101.13,0,0,0-15.11,18.67c-2.05,3.27-8.08,13.16-8.08,13.16,12.74-3.18,25.09-1.88,37.17-.78s24.33,2.38,37-.64c14-3.32,27.33-11.7,39.21-21.7,20-16.84,46.87-55.67,75.88-73l.58-.34S935.12,380.48,931.92,380.35Z"/>

                <path class="right-leaf" d="M814.49,347.21h0l7.4-8.72L816,341l-5.31,2.68a277.53,277.53,0,0,0-27.9,15.56A258.54,258.54,0,0,0,754,380.87a148.3,148.3,0,0,0-24,25.2,68.16,68.16,0,0,0-8.12,14.69,61.55,61.55,0,0,0-4,17.76,100.74,100.74,0,0,0,3,31.31,10.58,10.58,0,0,0,.36,1,1.71,1.71,0,0,1,.1.3l2.39,5.83s1.36-2.77,3-5.63l.2-.28c6-7.94,14.51-14.06,22.37-20.42a118.53,118.53,0,0,0,11.42-10.29,75.28,75.28,0,0,0,9.4-12.5,211.22,211.22,0,0,0,13.11-28.37c2-4.9,4.06-9.72,6.44-14.42,2.54-5.12,5.5-10.23,8.54-15.11s6.3-9.68,9.66-14.42c.78-1.13,2.28-3.15,3.75-5l2.83-3.33Z"/>

                <path class="right-leaf" d="M858.91,533.93l-.37-.53-3.68-5.29h0s-.5-.75-.68-1-.81-1-.81-1c-8.33-9.91-25.89-22.23-33.57-26.41a83.46,83.46,0,0,0-24.71-9.24,68,68,0,0,0-10.58-.64,137.86,137.86,0,0,0-16.71,1.8c-6.09.89-16.12,2.79-22.65,2.45-.48,0-5-.44-5.37-.43.07.07,3.37,2.79,4.45,3.81.49.45,1.76,1.54,2.23,2,8.18,7,22.56,17.66,32.43,21.77a98.73,98.73,0,0,0,25.3,6.88c9.57,1.26,19.35,1.06,29,1.52a95.17,95.17,0,0,1,24.85,4.08l.42.12Z"/>

            </g>

            <g id="bottom-leaf" >

                <path class="bottom-leaf" d="M488.9,857.56h0l-4.57,8,.23-5,.53-4.62A208.7,208.7,0,0,1,489,831.22a199.56,199.56,0,0,1,8.36-27.29A119.7,119.7,0,0,1,509.85,779a57.92,57.92,0,0,1,9-10.34,53.79,53.79,0,0,1,12.5-8.34,89.15,89.15,0,0,1,24.93-7.5,7.09,7.09,0,0,1,.9-.07l.26,0,5.17-.09s-1.74,1.83-3.46,3.88l-.17.24c-4.36,6.76-6.63,14.71-9.25,22.29a94.06,94.06,0,0,1-4.64,11.34,61.49,61.49,0,0,1-6.9,10.57,181.58,181.58,0,0,1-18,18.14c-3.19,2.94-6.3,5.9-9.23,9-3.2,3.39-6.29,7.09-9.16,10.77s-5.63,7.49-8.3,11.35c-.64.91-1.77,2.61-2.78,4.24l-1.75,3Z"/>

                <path class="bottom-leaf" d="M652.14,857.56h0l4.57,8-.23-5L656,856A210.77,210.77,0,0,0,652,831.22a199.56,199.56,0,0,0-8.36-27.29A119.7,119.7,0,0,0,631.19,779a57.92,57.92,0,0,0-9-10.34,53.79,53.79,0,0,0-12.5-8.34,89.15,89.15,0,0,0-24.93-7.5,7.09,7.09,0,0,0-.9-.07l-.26,0-5.17-.09s1.74,1.83,3.46,3.88l.16.24c4.37,6.76,6.63,14.71,9.26,22.29A95.65,95.65,0,0,0,596,790.4,61.55,61.55,0,0,0,602.89,801a181.58,181.58,0,0,0,18,18.14c3.19,2.94,6.3,5.9,9.23,9,3.2,3.39,6.28,7.09,9.16,10.77s5.63,7.49,8.3,11.35c.64.91,1.77,2.61,2.78,4.24l1.75,3Z"/>

                <path class="bottom-leaf" d="M533.78,856.8c3.38-14.72,12.33-28.39,19.45-41.85,2.28-4.38,4.58-8.76,6.76-13.19s4.12-8.54,5.88-13c.88-2.18,1.68-4.38,2.44-6.6l.72-2.12v.07c1-4,1.51-7,1.51-7s.64,3.28,1.66,7.54c.26.8.5,1.43.55,1.54.76,2.22,1.56,4.42,2.42,6.6,1.76,4.44,3.69,8.54,5.87,13s4.5,8.81,6.78,13.19c7.12,13.46,16.08,27.13,19.46,41.85a97.23,97.23,0,0,1-1.78,46.81c-6,22.13-22.73,62.83-32.07,88.29l-2.89,8.1c-8.24-24-28.37-71.74-35-96.39A96.49,96.49,0,0,1,533.78,856.8Z"/>

            </g>

        </g>
    
    </g>



</svg>