<svg id="Layer_1" data-name="Layer 1" xmlns="http://www.w3.org/2000/svg" viewBox="0 0 500 500">
    <defs>

      <linearGradient id="colorCycleGradient" x1="0%" y1="0%" x2="100%" y2="0%">
            <stop offset="0%" stop-color="red">
                <animate attributeName="stop-color" values="red; blue; green; red; violet; indigo; blue; green; yellow; orange; red" dur="20s" repeatCount="indefinite"/>
            </stop>
            <stop offset="50%" stop-color="blue">
                <animate attributeName="stop-color" values="blue; green; red; violet; indigo; blue; green; yellow; orange; red; blue" dur="20s" repeatCount="indefinite"/>
            </stop>
            <stop offset="100%" stop-color="green">
                <animate attributeName="stop-color" values="green; red; violet; indigo; blue; green; yellow; orange; red; blue; green" dur="20s" repeatCount="indefinite"/>
            </stop>
            <!-- Animate the gradient's position to create movement -->
            <animate attributeName="x1" from="-100%" to="100%" dur="20s" repeatCount="indefinite"/>
            <animate attributeName="x2" from="0%" to="200%" dur="20s" repeatCount="indefinite"/>
        </linearGradient>
        <style>

            #logo {  
                <!-- fill: url(#colorCycleGradient); -->
                <!-- fill: rgb(110, 66, 12); -->
                fill: black;
                transform-origin: center;
                transform: scale(0.9);
                stroke: black;
                <!-- stroke-width: 3; -->
                stroke-linejoin: round; /* Makes edges rounded */
                stroke-linecap: round; 
                stroke-alignment: inner;

            }
            
        
            #main {
                
            }
            #circ {
                display:none;
                stroke: rgb(110, 66, 12);
                stroke-width: 5;
            }

            #whole-leafes{

            }
            #leafs {

            }

            #left-leaf {

            }

            #right-leaf {

            }

            #bottom-leaf {

            }
           

        </style>
    </defs>

<!--Main-->

<g id="logo" class="gradientFill">

    <g id="main">

        <path class="main" d="M210.21,148.19c3.86-9.65,7.68-19.37,11-29.3A694.11,694.11,0,0,0,250.08,0,692.93,692.93,0,0,0,278.9,118.89c14.66,43.36,38.18,82.59,35,129.88-.09,1.19-.17,2.4-.29,3.6a137.91,137.91,0,0,1-4.72,25.49c-.12.41-.23.8-.35,1.19a125.86,125.86,0,0,1-30.89,52.51,77.22,77.22,0,0,1-21.84-13.62c.51-.44,1-.89,1.49-1.34a116.29,116.29,0,0,0,8.4-8.51,96.4,96.4,0,0,0,21-39.92c.5-1.9.93-3.82,1.33-5.77a111.64,111.64,0,0,0,2.12-19.89A124.27,124.27,0,0,0,288,217.19c-5.55-29.42-20.73-55.6-30.89-83.45-2.65-7.2-4.92-14.61-6.93-22.06-2.06,7.45-4.29,14.83-6.93,22.06-10.17,27.87-25.34,54-30.89,83.45a126.39,126.39,0,0,0-2.06,18.3,98.22,98.22,0,0,0-24.06,9.69C184.7,210.24,197.65,179.59,210.21,148.19Z"/>


        <path class="main" d="M159,383c-37.18,4-75.83,1.21-110.58-3.5-5.86-.78-11.74-1.61-17.6-2.39Q15.34,375,0,372.62l19-7.53q10.8-4.26,21.42-9.18a377.44,377.44,0,0,0,40.68-22.06c26.77-16.73,48.71-37.38,72-58.39a160.81,160.81,0,0,1,33.44-23.09,154.83,154.83,0,0,1,23.5-9.81A130.83,130.83,0,0,1,229,237.9c1.79-.28,3.58-.57,5.42-.83a109.86,109.86,0,0,1,31.26,0c1.84.26,3.63.55,5.42.83a130.36,130.36,0,0,1,12.75,2.81,120.59,120.59,0,0,1-3.15,25.74,118.87,118.87,0,0,0-18.1-3.63c-4.12-.48-8.33-.76-12.5-.87-4.18.11-8.35.39-12.51.87a121.82,121.82,0,0,0-24,5.38,135.25,135.25,0,0,0-22.24,9.64l-.88.46c-21.11,11.61-36.82,28.46-54.28,44.62-11.63,10.78-24.44,20-38.84,26.66a162.46,162.46,0,0,1-17.67,7c-1.91.6-4.83,2.05-6.89,2,7.89.34,87.71,8.82,149.09-19.11a108,108,0,0,0,22.4,17.71q-5.37,3.09-11.11,5.89C210.36,374.1,185,380.2,159,383Z"/>


        <path class="main" d="M249.5,353.3l.55.34A175.7,175.7,0,0,0,267,363c55.29,26.84,125.66,24.44,184.76,16.48,5.86-.79,11.74-1.62,17.6-2.4q15.44-2.07,30.78-4.48l-19-7.53q-10.83-4.26-21.43-9.18A376.78,376.78,0,0,1,419,333.87c-26.77-16.73-48.71-37.38-72-58.39a158.76,158.76,0,0,0-27.9-20.06,107.8,107.8,0,0,1-5.05,25.52c18.7,11.46,33.91,27.19,49.91,42,11.63,10.78,24.44,20,38.85,26.66a160.29,160.29,0,0,0,17.66,7c1.91.6,4.84,2.06,6.89,2-8.13.35-92.95,9.36-154.95-21.95a135.45,135.45,0,0,1-22.34-14h0c-2.48-1.91-4.84-3.89-7.14-6a118,118,0,0,1-8.39-8.5,95.73,95.73,0,0,1-19-33.4,86.79,86.79,0,0,0-22.12,9.6,126.89,126.89,0,0,0,34.36,52.3A153.81,153.81,0,0,0,249.5,353.3Z"/>

    </g>




    <g id="leafs">

         <g id="left-leaf" >
        
            <path class="left-leaf" d="M63.87,190.13c14.61,8.58,28.16,28.2,38.23,36.69,5.94,5,12.61,9.18,19.57,10.84,6.36,1.51,12.48.87,18.53.32s12.22-1.2,18.53.39L157,237.14c-10.85-7.55-24.91-16.15-36.25-22.41C101.08,203.84,79.4,195.48,63.87,190.13Z"/>

            <path class="left-leaf" d="M68.49,190.3a304.75,304.75,0,0,1,46.91,18.44,330.1,330.1,0,0,1,40.35,24.09c-.1-.11-.18-.25-.27-.36l-.37-.35c-1.56-1.84-4.27-5.51-5.31-6.81l-.24-.29c-8.73-10.47-20.1-18.72-31.67-24.63a91.89,91.89,0,0,0-35-10.06A133.76,133.76,0,0,0,68.49,190.3Z"/>


            <path class="left-leaf" d="M129.84,176c.69,1,.63.87,1.31,1.84q2.52,3.54,4.83,7.21c1.53,2.45,3,5,4.27,7.57,1.17,2.34,2.21,4.75,3.22,7.2A103.28,103.28,0,0,0,150.08,214a36.64,36.64,0,0,0,4.7,6.25,59.25,59.25,0,0,0,5.71,5.15c3.91,3.18,8.17,6.24,11.18,10.21l.06.07a3.85,3.85,0,0,0-.09-.41,78.58,78.58,0,0,0-5.72-17.41,102.15,102.15,0,0,0-16.4-23.45C145.39,189.83,131.14,177.09,129.84,176Z"/>

            <path class="left-leaf" d="M129.76,171.91l-2.66-1.34c8.24,7.38,17.93,15,22.42,19.75a111.34,111.34,0,0,1,17.25,23.05,72.42,72.42,0,0,1,5.61,13.32,84,84,0,0,1,2.06,9,3.81,3.81,0,0,0,.24-.67,50.38,50.38,0,0,0,1.51-15.66,31.08,31.08,0,0,0-2-8.88,34.65,34.65,0,0,0-4.06-7.35,74.55,74.55,0,0,0-12-12.6,130.49,130.49,0,0,0-14.35-10.82A138.06,138.06,0,0,0,129.76,171.91Z"/>

            <path class="left-leaf" d="M106.08,266.64l-.47.43a49.6,49.6,0,0,1,12.84-2.16c4.85-.22,9.73-.13,14.54-.76a49,49,0,0,0,12.64-3.44c5-2.06,12.13-7.36,16.22-10.89.27-.27.55-.52.8-.79a41.54,41.54,0,0,1-8.81,3.17c-8.72,2.14-17.86,2.19-26.62,4.12C121.11,257.71,111.77,261.25,106.08,266.64Z"/>

            <path class="left-leaf" d="M108.39,263.16l-.48.65a77.76,77.76,0,0,1,8.59-5.15,53.69,53.69,0,0,1,12.35-4.12c4.48-.93,9.05-1.43,13.6-2,7.08-.86,14.32-2.25,20.75-5.38-3.21-.16-8.77-.79-12-1.26a69.18,69.18,0,0,0-8.35-.9,32.46,32.46,0,0,0-5.3.33A41.32,41.32,0,0,0,125.23,250C121.36,252.06,112.57,258.23,108.39,263.16Z"/>

        </g>


        <g id="right-leaf" >

            <path class="right-leaf" d="M436.15,190.1c-14.62,8.58-28.17,28.2-38.24,36.68-5.94,5-12.6,9.19-19.61,10.85-6.36,1.51-12.49.87-18.53.32s-12.22-1.2-18.59.39l1.74-1.24c10.86-7.54,24.91-16.14,36.26-22.4C398.94,203.8,420.63,195.45,436.15,190.1Z"/>

            <path class="right-leaf" d="M431.53,190.26a303.81,303.81,0,0,0-46.9,18.48,329.46,329.46,0,0,0-40.36,24.09c.1-.11.18-.25.27-.36l.38-.35c1.56-1.84,4.25-5.51,5.29-6.82l.26-.28c8.73-10.47,20.09-18.72,31.66-24.63a91.72,91.72,0,0,1,35-10.06A127.92,127.92,0,0,1,431.53,190.26Z"/>

            <path class="right-leaf" d="M370.18,176c-.68,1-.63.87-1.3,1.83-1.68,2.37-3.31,4.77-4.83,7.21s-3,5-4.27,7.56c-1.19,2.35-2.22,4.76-3.22,7.21A105.69,105.69,0,0,1,350,214a37.17,37.17,0,0,1-4.7,6.25,59.25,59.25,0,0,1-5.71,5.15c-3.93,3.18-8.17,6.24-11.19,10.21l-.06.07.1-.41a77.39,77.39,0,0,1,5.72-17.41,101.72,101.72,0,0,1,16.4-23.52C354.64,189.8,368.89,177.06,370.18,176Z"/>

            <path class="right-leaf" d="M370.28,171.88l2.66-1.34c-8.19,7.38-17.93,15-22.43,19.75a111.6,111.6,0,0,0-17.25,23.05,71.61,71.61,0,0,0-5.6,13.31,84.13,84.13,0,0,0-2.06,9c0-.11-.17-.43-.23-.67a50.39,50.39,0,0,1-1.52-15.66,30.76,30.76,0,0,1,2-8.88,34.21,34.21,0,0,1,4.06-7.35,74.28,74.28,0,0,1,12-12.6,128.91,128.91,0,0,1,14.42-10.83A138.61,138.61,0,0,1,370.28,171.88Z"/>

            <path class="right-leaf" d="M393.93,266.61l.46.43a49.46,49.46,0,0,0-12.84-2.16c-4.85-.23-9.74-.13-14.53-.76a49.62,49.62,0,0,1-12.65-3.44c-4.94-2.06-12.13-7.37-16.22-10.89-.27-.27-.55-.52-.81-.8a41.31,41.31,0,0,0,8.82,3.18c8.73,2.14,17.86,2.19,26.63,4.11C378.92,257.67,388.26,261.16,393.93,266.61Z"/>

            <path class="right-leaf" d="M391.62,263.12l.5.66a74.06,74.06,0,0,0-8.6-5.15,53.22,53.22,0,0,0-12.35-4.12c-4.47-.94-9-1.44-13.59-2-7.08-.87-14.34-2.25-20.76-5.38,3.21-.16,8.78-.79,12-1.26a69.12,69.12,0,0,1,8.36-.9,33.41,33.41,0,0,1,5.29.32,41.76,41.76,0,0,1,12.36,4.62C378.67,252,387.45,258.16,391.62,263.12Z"/>

        </g>


        <g id="bottom-leaf" >

            <path class="bottom-leaf" d="M287.45,418.43c-.53-.72-2.19-2.66-2.73-3.38-1.32-1.77-1.35-1.74-2.76-3.42s-2.9-3.35-4.46-4.9-2.92-2.72-4.42-4a78,78,0,0,1-8.71-8.14,28.38,28.38,0,0,1-3.41-4.89,44.29,44.29,0,0,1-2.38-5.37c-1.39-3.58-2.58-7.39-4.75-10.51v-.06c0-.06.19.11.28.15a60.29,60.29,0,0,1,11.26,8.24,77.92,77.92,0,0,1,13.07,17.44c2.33,4.07,4.41,8.3,6.42,12.57Z"/>

            <path class="bottom-leaf" d="M289.07,420.21c-.18-.42-1.44-4.11-1.62-4.58-2.06-4.6-4.74-11.61-7.11-16a85.49,85.49,0,0,0-12.62-17.92,54.44,54.44,0,0,0-8.32-7.21,64.68,64.68,0,0,0-5.83-3.59,1,1,0,0,1-.1-.17c.17,0-.27-.19-.11-.17a.41.41,0,0,1-.05-.09c1.89.28,3.8.56,5.67,1a39.28,39.28,0,0,1,6.64,2.06,23.47,23.47,0,0,1,6,3.57,26,26,0,0,1,4.37,4.64,57.24,57.24,0,0,1,6.26,11.67,98.53,98.53,0,0,1,4.44,13A137.06,137.06,0,0,1,289.07,420.21Z"/>

            <path class="bottom-leaf" d="M248.26,380.3l.83,110c-4.12-12-14.27-35.88-17.58-48.21a48.57,48.57,0,0,1-.89-23.41c1.69-7.36,6.17-14.2,9.73-20.93,1.14-2.19,2.3-4.38,3.39-6.6s2.06-4.27,2.94-6.49c.43-1.09.83-2.19,1.21-3.3C247.92,381.29,248.09,380.83,248.26,380.3Z"/>

            <path class="bottom-leaf" d="M251.49,380.3l-.84,110c4.12-12,14.27-35.88,17.58-48.21a48.32,48.32,0,0,0,.89-23.41c-1.69-7.36-6.17-14.2-9.73-20.93-1.14-2.19-2.29-4.38-3.38-6.6s-2.06-4.27-2.94-6.49c-.44-1.09-.84-2.19-1.22-3.3Z"/>

            <path class="bottom-leaf" d="M212.13,418.43c.52-.72,2.19-2.66,2.72-3.38,1.32-1.77,1.35-1.74,2.76-3.42s2.9-3.35,4.46-4.9,2.91-2.72,4.43-4a78.79,78.79,0,0,0,8.7-8.14,27.63,27.63,0,0,0,3.41-4.89A46,46,0,0,0,241,384.3c1.37-3.58,2.58-7.39,4.73-10.51v-.06a1.17,1.17,0,0,1-.27.15,60.22,60.22,0,0,0-11.25,8.24,77.7,77.7,0,0,0-13.09,17.44c-2.31,4.07-4.4,8.3-6.4,12.57Z"/>

            <path class="bottom-leaf" d="M210.51,420.21c.17-.42,1.44-4.11,1.63-4.58,2.05-4.6,4.72-11.61,7.11-16a85.35,85.35,0,0,1,12.59-17.92,54.92,54.92,0,0,1,8.32-7.21,63.63,63.63,0,0,1,5.85-3.59.89.89,0,0,0,.08-.17c-.16,0,.28-.19.11-.17l.07-.09c-1.91.28-3.81.56-5.69,1a39.56,39.56,0,0,0-6.64,2.06,23.82,23.82,0,0,0-6,3.57,26.4,26.4,0,0,0-4.35,4.67,55.85,55.85,0,0,0-6.27,11.67,98.53,98.53,0,0,0-4.44,13C211.89,410.13,211.1,416.25,210.51,420.21Z"/>

        </g>

    </g>

   


</g>





</svg>