<svg id="Layer_1" data-name="Layer 1" xmlns="http://www.w3.org/2000/svg" viewBox="0 0 1078.95 1071.62"><defs><style>.cls-1{font-size:205.01px;}.cls-1,.cls-10,.cls-4,.cls-9{fill:#fff;}.cls-1,.cls-4{font-family:CormorantGaramond-SemiBold, Cormorant Garamond;font-weight:600;}.cls-2{letter-spacing:-0.03em;}.cls-3{letter-spacing:0em;}.cls-4{font-size:64.86px;letter-spacing:0.1em;}.cls-5{letter-spacing:0.05em;}.cls-6{letter-spacing:0.1em;}.cls-7{letter-spacing:0.05em;}.cls-8{letter-spacing:0.1em;}.cls-9{stroke:#fff;stroke-miterlimit:10;stroke-width:4.26px;}</style></defs><text class="cls-1" transform="translate(0 947.7)">Б<tspan class="cls-2" x="119.31" y="0">О</tspan><tspan class="cls-3" x="269.17" y="0">ЖЕ ИМЕ</tspan></text><text class="cls-4" transform="translate(306.83 1053.26)">S<tspan class="cls-5" x="39.37" y="0">P</tspan><tspan class="cls-6" x="77.96" y="0" xml:space="preserve">A  &amp;  </tspan><tspan class="cls-7" x="269.67" y="0">P</tspan><tspan class="cls-8" x="308.26" y="0">ARK</tspan></text><line class="cls-9" x1="7.99" y1="1035.1" x2="260.97" y2="1035.1"/><line class="cls-9" x1="816.53" y1="1035.1" x2="1069.51" y2="1035.1"/><path class="cls-10" d="M538,517.91l.8.5a255.74,255.74,0,0,0,24.83,13.78c81,39.35,184.21,35.83,270.84,24.15,8.59-1.15,17.2-2.37,25.79-3.52q22.65-3,45.13-6.56l-27.85-11q-15.85-6.24-31.4-13.46a552.69,552.69,0,0,1-59.65-32.33c-39.24-24.52-71.41-54.8-105.56-85.61a234,234,0,0,0-40.9-29.4,158.6,158.6,0,0,1-7.4,37.42c27.41,16.8,49.7,39.86,73.16,61.56,17.05,15.81,35.83,29.36,57,39.08a233,233,0,0,0,25.88,10.22c2.79.89,7.1,3,10.1,2.94-11.92.51-136.26,13.72-227.15-32.18A199.5,199.5,0,0,1,538.82,473h0c-3.62-2.81-7.09-5.71-10.46-8.77a174.34,174.34,0,0,1-12.3-12.47,140,140,0,0,1-27.91-49,127.19,127.19,0,0,0-32.43,14.08,186,186,0,0,0,50.38,76.67A226.36,226.36,0,0,0,538,517.91ZM480.4,217.23c5.65-14.14,11.25-28.39,16.17-42.95A1015.69,1015.69,0,0,0,538.83,0a1015.23,1015.23,0,0,0,42.26,174.28c21.48,63.57,56,121.07,51.32,190.39-.14,1.75-.26,3.52-.42,5.29a203.83,203.83,0,0,1-6.93,37.37c-.17.58-.33,1.16-.51,1.73a184.46,184.46,0,0,1-45.28,77,113,113,0,0,1-32-20c.74-.64,1.51-1.3,2.18-2a172.4,172.4,0,0,0,12.31-12.47,141.21,141.21,0,0,0,30.74-58.53c.74-2.78,1.37-5.6,2-8.45a163.28,163.28,0,0,0,3.11-29.16,181.21,181.21,0,0,0-3.14-37.12c-8.14-43.13-30.39-81.5-45.28-122.32-3.88-10.57-7.22-21.42-10.16-32.35-3,10.93-6.29,21.74-10.16,32.35-14.91,40.85-37.14,79.19-45.28,122.32a185.94,185.94,0,0,0-3,26.82,144.33,144.33,0,0,0-35.28,14.21C443,308.2,462,263.26,480.4,217.23ZM405.26,561.42c-54.5,5.83-111.16,1.79-162.09-5.11-8.59-1.15-17.21-2.37-25.8-3.52q-22.63-3-45.13-6.56l27.87-11q15.84-6.24,31.4-13.46a553.5,553.5,0,0,0,59.64-32.33c39.24-24.52,71.4-54.8,105.57-85.61a236.21,236.21,0,0,1,49-33.83,226.5,226.5,0,0,1,34.44-14.39,191.55,191.55,0,0,1,27.73-6.83c2.63-.41,5.25-.83,7.94-1.21a160.74,160.74,0,0,1,45.84,0c2.68.38,5.31.8,7.93,1.21,6.25,1.05,12.5,2.43,18.69,4.12a175.74,175.74,0,0,1-4.62,37.73,172.36,172.36,0,0,0-26.53-5.31c-6-.71-12.21-1.12-18.33-1.29-6.12.17-12.24.58-18.33,1.29a178.67,178.67,0,0,0-35.18,7.87,198.78,198.78,0,0,0-32.61,14.15l-1.28.66c-30.95,17-54,41.73-79.57,65.41-17.05,15.8-35.83,29.36-56.94,39.08A236.07,236.07,0,0,1,289,522.67c-2.79.89-7.08,3-10.1,2.94,11.56.5,128.58,12.92,218.55-28a158.84,158.84,0,0,0,32.84,26q-7.89,4.52-16.29,8.63C480.62,548.4,443.46,557.33,405.26,561.42Z"/><path class="cls-10" d="M488.86,124.35l-2.19,8.39A282.46,282.46,0,0,0,303,255.16l-6.76-4.06A290.29,290.29,0,0,1,488.86,124.35Z"/><path class="cls-10" d="M256.67,410.13a283.29,283.29,0,0,0,9.2,71.74l-7.69,1.68a291.71,291.71,0,0,1,7.69-171.66l6.92,4A282.3,282.3,0,0,0,256.67,410.13Z"/><path class="cls-10" d="M591,132.73a282.34,282.34,0,0,1,184.13,123l6.89-3.88A290.29,290.29,0,0,0,588.78,124.33Z"/><path class="cls-10" d="M486.67,695.39a290,290,0,0,1-181.8-113.91l7.54-3a282,282,0,0,0,174.26,109Z"/><path class="cls-10" d="M804.94,316.06a283.79,283.79,0,0,1,6.62,166.52l7.55,2.07a291.59,291.59,0,0,0-7.37-172.82Z"/><path class="cls-10" d="M772.77,581.54A290.2,290.2,0,0,1,590.15,695.6l.29-8.07a282.11,282.11,0,0,0,174.76-109Z"/><path class="cls-10" d="M811.61,278.67c-21.43,12.58-41.3,41.34-56.06,53.77-8.71,7.35-18.47,13.47-28.75,15.9-9.33,2.22-18.31,1.29-27.17.47s-17.91-1.75-27.24.57l2.55-1.81c15.91-11.06,36.51-23.66,53.14-32.84C757.06,298.75,788.85,286.51,811.61,278.67Z"/><path class="cls-10" d="M804.83,278.9A447.71,447.71,0,0,0,736.08,306a482.71,482.71,0,0,0-59.16,35.32c.14-.17.26-.36.39-.53l.56-.51c2.28-2.7,6.23-8.08,7.76-10l.38-.43c12.79-15.34,29.44-27.43,46.41-36.1A134.62,134.62,0,0,1,783.73,279,188,188,0,0,1,804.83,278.9Z"/><path class="cls-10" d="M714.89,258c-1,1.4-.92,1.28-1.9,2.68-2.46,3.48-4.84,7-7.08,10.57s-4.37,7.3-6.26,11.09c-1.74,3.44-3.25,7-4.72,10.57a154.66,154.66,0,0,1-9.69,20.8,54,54,0,0,1-6.89,9.16,86.72,86.72,0,0,1-8.37,7.54c-5.75,4.67-12,9.15-16.41,15l-.07.11.13-.6A114.18,114.18,0,0,1,662,319.33a148.68,148.68,0,0,1,24.05-34.47C692.12,278.24,713,259.55,714.89,258Z"/><path class="cls-10" d="M715,252l3.9-2c-12,10.82-26.28,21.94-32.87,28.95a163.41,163.41,0,0,0-25.3,33.79,104.71,104.71,0,0,0-8.21,19.51,124.41,124.41,0,0,0-3,13.18c0-.17-.24-.63-.33-1a74,74,0,0,1-2.24-23,45.48,45.48,0,0,1,2.93-13,51,51,0,0,1,6-10.78,109,109,0,0,1,17.52-18.46,189.48,189.48,0,0,1,21.13-15.87A204.69,204.69,0,0,1,715,252Z"/><path class="cls-10" d="M749.71,390.83l.68.63a72,72,0,0,0-18.82-3.17c-7.11-.33-14.28-.19-21.31-1.11a72.49,72.49,0,0,1-18.53-5c-7.25-3-17.78-10.81-23.79-16-.39-.39-.8-.76-1.18-1.16a60.56,60.56,0,0,0,12.92,4.64c12.8,3.14,26.19,3.22,39.05,6C727.71,377.73,741.4,382.85,749.71,390.83Z"/><path class="cls-10" d="M746.33,385.71l.73,1a110,110,0,0,0-12.61-7.55,77.1,77.1,0,0,0-18.11-6c-6.55-1.39-13.25-2.12-19.92-2.92-10.37-1.27-21-3.29-30.43-7.88,4.71-.24,12.88-1.16,17.56-1.85a102.61,102.61,0,0,1,12.25-1.32,50.38,50.38,0,0,1,7.76.47,61.17,61.17,0,0,1,18.11,6.78C727.34,369.46,740.22,378.44,746.33,385.71Z"/><path class="cls-10" d="M265.87,278.72c21.41,12.57,41.29,41.34,56.05,53.78,8.71,7.33,18.47,13.46,28.68,15.89,9.32,2.22,18.3,1.28,27.16.47s17.92-1.75,27.17.57l-2.53-1.8c-15.91-11.07-36.53-23.68-53.15-32.85C320.43,298.81,288.64,286.55,265.87,278.72Z"/><path class="cls-10" d="M272.64,279a447.16,447.16,0,0,1,68.76,27,481.09,481.09,0,0,1,59.15,35.32c-.13-.17-.25-.36-.39-.53l-.54-.51c-2.28-2.7-6.25-8.08-7.77-10l-.37-.44c-12.8-15.34-29.46-27.43-46.42-36.1A134.69,134.69,0,0,0,293.82,279,194.34,194.34,0,0,0,272.64,279Z"/><path class="cls-10" d="M362.58,258c1,1.41.92,1.29,1.92,2.7,2.46,3.46,4.83,7,7.08,10.57s4.36,7.3,6.26,11.09c1.72,3.44,3.24,7,4.72,10.57a151.69,151.69,0,0,0,9.69,20.8,53.43,53.43,0,0,0,6.89,9.16,85.42,85.42,0,0,0,8.37,7.54c5.74,4.67,12,9.15,16.39,15l.09.1a4.62,4.62,0,0,0-.13-.6,116.17,116.17,0,0,0-8.39-25.52A149.65,149.65,0,0,0,391.42,285C385.37,278.28,364.48,259.6,362.58,258Z"/><path class="cls-10" d="M362.46,252l-3.89-2c12.07,10.83,26.27,22,32.85,29a163.41,163.41,0,0,1,25.3,33.79,105.89,105.89,0,0,1,8.22,19.53,121.28,121.28,0,0,1,3,13.17,6.84,6.84,0,0,0,.35-1,74.26,74.26,0,0,0,2.22-22.95,45.59,45.59,0,0,0-2.91-13,50.73,50.73,0,0,0-5.95-10.77,109,109,0,0,0-17.58-18.46,189.6,189.6,0,0,0-21-15.86A202.48,202.48,0,0,0,362.46,252Z"/><path class="cls-10" d="M327.75,390.88l-.68.63a71.54,71.54,0,0,1,18.82-3.17c7.11-.33,14.26-.2,21.31-1.12a72.19,72.19,0,0,0,18.53-5c7.25-3,17.78-10.79,23.77-16,.4-.39.8-.75,1.18-1.16a60.05,60.05,0,0,1-12.92,4.65c-12.78,3.14-26.18,3.21-39,6C349.78,377.77,336.09,383,327.75,390.88Z"/><path class="cls-10" d="M331.14,385.77l-.71,1A113.56,113.56,0,0,1,343,379.18a77.75,77.75,0,0,1,18.11-6c6.57-1.37,13.27-2.1,19.94-2.91,10.37-1.25,21-3.29,30.41-7.88-4.71-.24-12.86-1.16-17.55-1.86a102.65,102.65,0,0,0-12.24-1.31,47.93,47.93,0,0,0-7.76.48,60.9,60.9,0,0,0-18.11,6.78C350.14,369.5,337.27,378.54,331.14,385.77Z"/><path class="cls-10" d="M593.62,613.39c-.77-1.06-3.21-3.91-4-5-1.93-2.59-2-2.55-4-5s-4.26-4.9-6.54-7.18-4.28-4-6.49-5.9a117.27,117.27,0,0,1-12.77-11.94,41.24,41.24,0,0,1-5-7.17,64.82,64.82,0,0,1-3.49-7.86c-2-5.26-3.79-10.84-7-15.41v-.09c0-.09.28.16.41.22a88.85,88.85,0,0,1,16.5,12.08,114,114,0,0,1,19.17,25.56c3.41,6,6.46,12.17,9.4,18.43Z"/><path class="cls-10" d="M596,616c-.26-.62-2.11-6-2.37-6.72-3-6.74-6.94-17-10.43-23.45a124.7,124.7,0,0,0-18.49-26.28A80.14,80.14,0,0,0,552.51,549a92.71,92.71,0,0,0-8.56-5.27,1.12,1.12,0,0,1-.13-.24c.24,0-.41-.29-.17-.26l-.08-.13c2.78.42,5.57.83,8.32,1.42a55.06,55.06,0,0,1,9.73,3,34.6,34.6,0,0,1,8.76,5.23,38.89,38.89,0,0,1,6.4,6.8A83.68,83.68,0,0,1,586,576.67a144.16,144.16,0,0,1,6.51,19C594,601.21,595.15,610.19,596,616Z"/><path class="cls-10" d="M536.18,557.49l1.21,161.29c-6-17.57-20.92-52.6-25.77-70.66a71.21,71.21,0,0,1-1.31-34.32c2.47-10.79,9.05-20.82,14.26-30.69,1.68-3.21,3.38-6.41,5-9.67s3-6.27,4.3-9.51q1-2.4,1.78-4.84C535.68,558.93,535.92,558.27,536.18,557.49Z"/><path class="cls-10" d="M540.9,557.49l-1.22,161.29c6-17.57,20.92-52.6,25.76-70.66a70.85,70.85,0,0,0,1.32-34.32C564.28,603,557.7,593,552.49,583.11c-1.67-3.21-3.36-6.41-5-9.67s-3-6.27-4.3-9.51c-.65-1.6-1.24-3.21-1.8-4.84Z"/><path class="cls-10" d="M483.2,613.39c.77-1.06,3.22-3.91,4-5,1.93-2.59,2-2.55,4.05-5s4.24-4.9,6.53-7.18,4.27-4,6.49-5.9A117.17,117.17,0,0,0,517,578.39a40.34,40.34,0,0,0,5-7.17,64.88,64.88,0,0,0,3.5-7.86c2-5.26,3.79-10.84,7-15.41v-.09a3.11,3.11,0,0,1-.4.22,87.56,87.56,0,0,0-16.49,12.08,113.55,113.55,0,0,0-19.19,25.56c-3.39,6-6.46,12.17-9.38,18.43Z"/><path class="cls-10" d="M480.83,616c.26-.62,2.12-6,2.39-6.72,3-6.74,6.93-17,10.43-23.45a125.2,125.2,0,0,1,18.46-26.28A80.14,80.14,0,0,1,524.3,549a92.86,92.86,0,0,1,8.57-5.27,1.34,1.34,0,0,0,.12-.24c-.24,0,.41-.29.17-.26l.09-.13c-2.79.42-5.58.83-8.33,1.42a55.42,55.42,0,0,0-9.74,3,35.31,35.31,0,0,0-8.75,5.23,39.08,39.08,0,0,0-6.38,6.85,83,83,0,0,0-9.2,17.11,146.1,146.1,0,0,0-6.5,19C482.86,601.21,481.69,610.19,480.83,616Z"/></svg>